<svg xmlns="http://www.w3.org/2000/svg" width="48.384" height="31.249" viewBox="0 0 48.384 31.249">
  <path id="Icon_zocial-email" data-name="Icon zocial-email" d="M.072,32.549V6.836q0-.045.14-.848L16.029,18.934.259,33.442a3.639,3.639,0,0,1-.187-.893ZM2.172,4.2a2.091,2.091,0,0,1,.793-.134h42.6a2.751,2.751,0,0,1,.84.134L30.54,17.193,28.44,18.8l-4.153,3.259L20.135,18.8l-2.1-1.607Zm.047,30.981,15.91-14.6,6.159,4.777,6.159-4.777,15.91,14.6a2.331,2.331,0,0,1-.793.134H2.965a2.2,2.2,0,0,1-.747-.134ZM32.546,18.934,48.316,5.988a2.559,2.559,0,0,1,.14.848V32.549a3.285,3.285,0,0,1-.14.893Z" transform="translate(-0.072 -4.068)" fill="#fff"/>
</svg>
