<svg xmlns="http://www.w3.org/2000/svg" width="39.235" height="39.225" viewBox="0 0 39.235 39.225">
  <path id="Icon_awesome-phone" data-name="Icon awesome-phone" d="M37.809,1.885,29.84.046a1.851,1.851,0,0,0-2.107,1.065l-3.678,8.58a1.834,1.834,0,0,0,.529,2.145l4.644,3.8A28.4,28.4,0,0,1,15.648,29.211l-3.8-4.643A1.837,1.837,0,0,0,9.7,24.04L1.119,27.717A1.86,1.86,0,0,0,.046,29.832L1.885,37.8a1.838,1.838,0,0,0,1.793,1.425A35.548,35.548,0,0,0,39.235,3.677,1.837,1.837,0,0,0,37.809,1.885Z" transform="translate(0.001 0.001)" fill="#fff"/>
</svg>
